<?xml version="1.0" encoding="utf-8"?>
<!-- Generator: Adobe Illustrator 15.0.0, SVG Export Plug-In  -->
<!DOCTYPE svg PUBLIC "-//W3C//DTD SVG 1.1//EN" "http://www.w3.org/Graphics/SVG/1.1/DTD/svg11.dtd" [
	<!ENTITY ns_flows "http://ns.adobe.com/Flows/1.0/">
]>
<svg version="1.1"
	 xmlns="http://www.w3.org/2000/svg" xmlns:xlink="http://www.w3.org/1999/xlink" xmlns:a="http://ns.adobe.com/AdobeSVGViewerExtensions/3.0/"
	 x="0px" y="0px" width="448px" height="320px" viewBox="0.5 -0.5 448 320" enable-background="new 0.5 -0.5 448 320"
	 xml:space="preserve">
<defs>
</defs>
<path opacity="0.4" fill="#010101" d="M320,160c0-6.167-2.5-10.667-7.5-13.5l-128-80c-5.167-3.333-10.583-3.5-16.25-0.5
	c-5.5,3-8.25,7.667-8.25,14v160c0,6.333,2.75,11,8.25,14c2.667,1.333,5.25,2,7.75,2c3.333,0,6.167-0.833,8.5-2.5l128-80
	C317.5,170.666,320,166.166,320,160z M448,160c0,16-0.083,28.5-0.25,37.5s-0.875,20.375-2.125,34.125S442.5,257.667,440,268.5
	c-2.667,12.167-8.417,22.417-17.25,30.75s-19.167,13.167-31,14.5c-37,4.167-92.916,6.25-167.75,6.25
	c-74.833,0-130.75-2.083-167.75-6.25c-11.833-1.333-22.208-6.167-31.125-14.5S10.417,280.667,7.75,268.5
	c-2.333-10.833-4.125-23.125-5.375-36.875S0.417,206.5,0.25,197.5S0,176,0,160s0.083-28.5,0.25-37.5s0.875-20.375,2.125-34.125
	S5.5,62.333,8,51.5c2.667-12.167,8.417-22.417,17.25-30.75s19.167-13.167,31-14.5C93.25,2.083,149.167,0,224,0
	c74.834,0,130.75,2.083,167.75,6.25c11.833,1.333,22.208,6.167,31.125,14.5s14.708,18.583,17.375,30.75
	c2.333,10.833,4.125,23.125,5.375,36.875s1.958,25.125,2.125,34.125S448,144,448,160z"/>
</svg>
